<svg width="34" height="34" viewBox="0 0 34 34" fill="none" xmlns="http://www.w3.org/2000/svg">
<path d="M6.62292 14.4854L10.3771 16.0792C10.8021 15.2292 11.2566 14.391 11.7406 13.5646C12.2247 12.7382 12.7382 11.9472 13.2812 11.1917L10.4833 10.625L6.62292 14.4854ZM12.0771 17.3542L16.7875 22.0646C18.1333 21.4507 19.3965 20.7542 20.5771 19.975C21.7576 19.1958 22.7139 18.4403 23.4458 17.7083C25.3583 15.7958 26.7632 13.8361 27.6604 11.8292C28.5576 9.82223 29.0417 7.55556 29.1125 5.02918C26.5861 5.10001 24.3194 5.58404 22.3125 6.48126C20.3056 7.37848 18.3458 8.78334 16.4333 10.6958C15.7014 11.4278 14.9458 12.384 14.1667 13.5646C13.3875 14.7451 12.691 16.0083 12.0771 17.3542ZM19.4792 12.201C19.4792 11.5045 19.7153 10.9201 20.1875 10.4479C20.6597 9.9757 21.2441 9.73959 21.9406 9.73959C22.6372 9.73959 23.2215 9.9757 23.6938 10.4479C24.166 10.9201 24.4021 11.5045 24.4021 12.201C24.4021 12.8976 24.166 13.482 23.6938 13.9542C23.2215 14.4264 22.6372 14.6625 21.9406 14.6625C21.2441 14.6625 20.6597 14.4264 20.1875 13.9542C19.7153 13.482 19.4792 12.8976 19.4792 12.201ZM19.6562 27.5188L23.5167 23.6583L22.95 20.8604C22.1944 21.4035 21.4035 21.917 20.5771 22.401C19.7507 22.8851 18.9125 23.3396 18.0625 23.7646L19.6562 27.5188ZM31.2021 2.93959C31.4146 6.1507 31.0132 9.07848 29.9979 11.7229C28.9826 14.3674 27.3062 16.8583 24.9688 19.1958L24.8979 19.2667L24.8271 19.3375L25.6063 23.2333C25.6771 23.5875 25.6594 23.9299 25.5531 24.2604C25.4469 24.591 25.2639 24.8861 25.0042 25.1458L18.9479 31.2375L15.9375 24.225L9.91667 18.2042L2.90417 15.1938L8.99583 9.13751C9.25556 8.87779 9.55069 8.6948 9.88125 8.58855C10.2118 8.4823 10.5542 8.46459 10.9083 8.53543L14.8042 9.31459C14.8278 9.29098 14.8514 9.27327 14.875 9.26147C14.8986 9.24966 14.9222 9.23195 14.9458 9.20834C17.2833 6.87084 19.7743 5.18855 22.4188 4.16147C25.0632 3.13438 27.991 2.72709 31.2021 2.93959ZM5.27708 22.4896C6.10347 21.6632 7.11285 21.2441 8.30521 21.2323C9.49757 21.2205 10.5069 21.6278 11.3333 22.4542C12.1597 23.2806 12.567 24.2899 12.5552 25.4823C12.5434 26.6747 12.1243 27.684 11.2979 28.5104C10.684 29.1243 9.73368 29.632 8.44688 30.0333C7.16007 30.4347 5.22986 30.8125 2.65625 31.1667C3.01042 28.5931 3.38229 26.657 3.77188 25.3583C4.16146 24.0597 4.66319 23.1035 5.27708 22.4896ZM6.76458 24.0125C6.43403 24.3667 6.13889 24.9215 5.87917 25.6771C5.61944 26.4326 5.39514 27.4007 5.20625 28.5813C6.38681 28.3924 7.35486 28.1681 8.11042 27.9083C8.86597 27.6486 9.42083 27.3535 9.775 27.0229C10.2236 26.6215 10.4538 26.1198 10.4656 25.5177C10.4774 24.9156 10.2708 24.3903 9.84583 23.9417C9.39722 23.5167 8.87187 23.3101 8.26979 23.3219C7.66771 23.3337 7.16597 23.5639 6.76458 24.0125Z" fill="#D92B8A"/>
</svg>
